<svg width="22" height="22" viewBox="0 0 22 22" fill="none" xmlns="http://www.w3.org/2000/svg">
<g clip-path="url(#clip0_125_259)" filter="url(#filter0_d_125_259)">
<path d="M17.0667 7.03693C17.0667 3.6652 14.3513 0.93335 11 0.93335C7.64864 0.93335 4.93332 3.6652 4.93332 7.03693C4.93332 10.0833 7.15181 12.6084 10.0521 13.0667V8.80131H8.51094V7.03693H10.0521V5.69218C10.0521 4.16259 10.9572 3.31768 12.3435 3.31768C13.0074 3.31768 13.7016 3.4368 13.7016 3.4368V4.93809H12.9364C12.183 4.93809 11.9479 5.40865 11.9479 5.89128V7.03693H13.6304L13.3613 8.80131H11.9479V13.0667C14.8482 12.6084 17.0667 10.0833 17.0667 7.03693Z" fill="white"/>
</g>
<defs>
<filter id="filter0_d_125_259" x="0" y="0" width="22" height="22" filterUnits="userSpaceOnUse" color-interpolation-filters="sRGB">
<feFlood flood-opacity="0" result="BackgroundImageFix"/>
<feColorMatrix in="SourceAlpha" type="matrix" values="0 0 0 0 0 0 0 0 0 0 0 0 0 0 0 0 0 0 127 0" result="hardAlpha"/>
<feOffset dy="4"/>
<feGaussianBlur stdDeviation="2"/>
<feComposite in2="hardAlpha" operator="out"/>
<feColorMatrix type="matrix" values="0 0 0 0 0 0 0 0 0 0 0 0 0 0 0 0 0 0 0.25 0"/>
<feBlend mode="normal" in2="BackgroundImageFix" result="effect1_dropShadow_125_259"/>
<feBlend mode="normal" in="SourceGraphic" in2="effect1_dropShadow_125_259" result="shape"/>
</filter>
<clipPath id="clip0_125_259">
<rect width="14" height="14" fill="white" transform="translate(4)"/>
</clipPath>
</defs>
</svg>
